<?xml version="1.0" encoding="utf-8"?>
<!-- Generator: Adobe Illustrator 22.1.0, SVG Export Plug-In . SVG Version: 6.00 Build 0)  -->
<svg version="1.1" id="Layer_1" xmlns="http://www.w3.org/2000/svg" xmlns:xlink="http://www.w3.org/1999/xlink" x="0px" y="0px"
	 viewBox="0 0 500 100" style="enable-background:new 0 0 500 100;" xml:space="preserve">
<g>
	<path d="M25.2,22.5h12.1v24.1l22.3-24.1h14.6L51.9,45.8l23.4,31.7H60.7L43.7,54.1l-6.4,6.6v16.8H25.2L25.2,22.5z"/>
	<path d="M98.4,22.5h11.2l25.8,33.9V22.5h11.9v55.1h-10.2l-26.7-35v35H98.4L98.4,22.5z"/>
	<path d="M136.9,22.5H148l25.8,33.9V22.5h12v55.1h-10.3l-26.7-35v35h-11.9V22.5z"/>
	<path d="M230.2,55.8l-21.1-33.3h14.2l13.1,22.1l13.4-22.1h13.8l-21.2,33.1v21.9h-12.1L230.2,55.8z"/>
	<path d="M279.6,50.2V50c-0.3-15.5,12-28.2,27.5-28.5c0.4,0,0.8,0,1.2,0c10.4,0,16.6,3.5,21.7,8.5l-7.7,8.9
		c-4.2-3.9-8.6-6.2-14.1-6.2c-9.3,0-16,7.7-16,17.1V50c0,9.4,6.6,17.3,16,17.3c6.3,0,10.1-2.5,14.5-6.5l7.7,7.8
		c-5.6,6.6-13.9,10.2-22.6,9.8c-15.4,0.2-28-12.1-28.2-27.5C279.6,50.7,279.6,50.4,279.6,50.2z"/>
	<path d="M354.2,68.3l30.3-35.2h-29.3V22.5H400v9.2L369.7,67H400v10.6h-45.9L354.2,68.3z"/>
	<path d="M427.2,22.5h25.2c7,0,12.4,2,16,5.6c3.2,3.4,4.9,7.9,4.7,12.6v0.1c0.4,7.7-4.5,14.7-11.8,17.1l13.5,19.7h-14.2l-11.8-17.6
		h-9.5v17.6h-12.1V22.5z M451.6,49.2c5.9,0,9.3-3.1,9.3-7.8v-0.2c0-5.2-3.6-7.9-9.5-7.9h-12.1v15.8H451.6z"/>
</g>
</svg>
